:SAMPLES-PER-SECOND 30
:FULLY-SPECIFIED
:DEGREES
97
root  -10.2692 37.4209 -1.80179 112.046 -82.2587 -115.527
RightUpLeg  -17.3737 -6.26316 12.4103
RightLeg  41.1704 -5.08437 -5.03728
RightFoot  -19.2069 -0.660818 -7.81845
RightToes  -1.74624e-010 0 -3.6325e-017
Spine  11.9687 -3.30655 14.7948
Spine1  5.93758 -1.43828 0.482957
HEad  -21.1071 6.95761 -7.25633
LeftShoulder1  8.31728 -11.5312 -48.2768
LeftArm  -4.77803 13.1299 -30.2996
LeftForeArm  174.086 -66.2002 -158.274
LeftHand  -0.244104 0.0205437 5.32207
RightShoulder  6.76083 10.1044 43.3205
RightArm  1.6481 -16.5926 27.0041
RightForeArm  137.99 67.0213 153.219
RightHand  0.318161 -9.34121 -10.3278
LeftUpLeg  -14.2632 -1.46041 9.41509
LeftLeg  81.0524 1.14887 11.3318
LeftFoot  -5.84574 0.150797 -2.41395
LeftToes  -6.82154e-011 1.37952e-011 -1.79748e-011
98
root  -12.467 37.6221 -1.83209 117.512 -82.7797 -120.606
RightUpLeg  -12.9345 -6.96282 10.8159
RightLeg  39.5686 -4.18786 -4.00879
RightFoot  -22.3426 -0.714232 -5.79136
RightToes  -1.74624e-010 0 -3.6325e-017
Spine  10.6161 -1.83993 17.0838
Spine1  6.89736 1.11408 -3.34941
HEad  -21.0499 4.22885 -6.13734
LeftShoulder1  8.70878 -11.8844 -49.406
LeftArm  -4.91171 19.0347 -28.1807
LeftForeArm  170.768 -66.0077 -158.096
LeftHand  -0.244104 0.0205437 5.32207
RightShoulder  6.77265 10.2459 42.9212
RightArm  1.11636 -9.62624 31.2768
RightForeArm  143.116 66.6042 154.278
RightHand  0.24332 -8.37783 -10.5875
LeftUpLeg  -19.3231 -1.91528 9.11508
LeftLeg  80.1404 1.14588 10.2101
LeftFoot  -7.66322 0.114885 -2.177
LeftToes  -6.82154e-011 1.37952e-011 -1.79748e-011
99
root  -14.8482 38.3505 -1.94698 133.618 -84.6268 -136.122
RightUpLeg  -6.81429 -7.52908 7.29018
RightLeg  34.1506 -3.22414 -2.62083
RightFoot  -21.8169 -0.609019 -5.05955
RightToes  -1.74624e-010 0 -3.6325e-017
Spine  9.0587 0.511388 17.4278
Spine1  6.73621 4.39713 -7.97588
HEad  -19.2721 0.101015 -2.76693
LeftShoulder1  8.59323 -11.856 -48.8313
LeftArm  -2.03309 25.2439 -24.9724
LeftForeArm  171.005 -65.0694 -159.001
LeftHand  -0.244104 0.0205437 5.32207
RightShoulder  6.59745 10.2366 41.7659
RightArm  0.991766 -8.60574 35.7651
RightForeArm  149.461 64.0757 157.597
RightHand  0.183151 -7.7518 -10.3737
LeftUpLeg  -22.3124 -1.74694 6.52722
LeftLeg  73.4577 2.06904 8.91465
LeftFoot  -9.45629 0.104512 -2.99413
LeftToes  -6.82154e-011 1.37952e-011 -1.79748e-011
100
root  -17.3121 39.409 -2.08667 167.572 -86.4437 -169.329
RightUpLeg  -0.31911 -8.58386 2.69587
RightLeg  27.1131 -1.42629 -1.071
RightFoot  -18.2719 -0.317537 -3.00447
RightToes  -1.74624e-010 0 -3.6325e-017
Spine  7.50784 2.85557 15.7154
Spine1  5.90919 7.05383 -11.6158
HEad  -17.1039 -3.94966 0.77496
LeftShoulder1  8.10341 -11.3823 -47.4978
LeftArm  1.61655 30.7575 -21.2896
LeftForeArm  172.901 -63.535 -160.517
LeftHand  -0.244104 0.0205437 5.32207
RightShoulder  6.44049 9.9754 41.549
RightArm  3.27787 -9.68861 37.6492
RightForeArm  151.882 61.1997 160.297
RightHand  0.193852 -8.00813 -9.87008
LeftUpLeg  -23.1429 -0.972578 2.80662
LeftLeg  61.7791 4.13106 8.80186
LeftFoot  -10.7955 0.0862525 -4.33688
LeftToes  -6.82154e-011 1.37952e-011 -1.79748e-011
101
root  -19.7604 40.43 -2.18178 -148.135 -87.0886 147.578
RightUpLeg  4.71367 -11.1263 -1.6416
RightLeg  21.2436 2.1466 0.803364
RightFoot  -11.584 -0.0965861 1.4656
RightToes  -1.74624e-010 0 -3.6325e-017
Spine  5.08225 4.50657 13.3427
Spine1  5.54967 8.47865 -13.4382
HEad  -14.8633 -6.8117 2.5503
LeftShoulder1  7.6993 -11.0357 -46.1788
LeftArm  3.57663 36.4151 -18.1386
LeftForeArm  173.081 -61.8118 -161.858
LeftHand  -0.244104 0.0205437 5.32207
RightShoulder  6.24412 9.59637 41.4359
RightArm  7.72944 -10.2465 37.8458
RightForeArm  152.471 59.7113 161.427
RightHand  0.189419 -8.6733 -8.03623
LeftUpLeg  -22.9059 0.773559 -0.617189
LeftLeg  47.3533 6.89568 8.39062
LeftFoot  -11.3781 0.067323 -4.75764
LeftToes  -6.82154e-011 1.37952e-011 -1.79748e-011
102
root  -22.1305 41.1463 -2.22293 -119.132 -87.2112 119.821
RightUpLeg  7.09259 -12.8529 -4.17232
RightLeg  19.5836 4.40725 1.83484
RightFoot  -3.00452 -0.388932 5.26394
RightToes  -1.74624e-010 0 -3.6325e-017
Spine  2.30975 5.40393 11.7248
Spine1  5.98096 9.11466 -14.1064
HEad  -12.8724 -8.39932 2.69707
LeftShoulder1  7.62674 -11.231 -45.1024
LeftArm  3.13757 42.3574 -16.2322
LeftForeArm  171.782 -60.1643 -162.876
LeftHand  -0.244104 0.0205437 5.32207
RightShoulder  6.07193 9.50935 40.497
RightArm  12.3914 -10.3397 38.1761
RightForeArm  156.068 59.4814 161.901
RightHand  0.0846269 -9.66879 -3.69342
LeftUpLeg  -22.2094 3.93582 -3.28301
LeftLeg  33.098 7.5183 5.71831
LeftFoot  -11.9805 0.0465071 -4.42637
LeftToes  -6.82154e-011 1.37952e-011 -1.79748e-011
103
root  -24.369 41.4652 -2.23495 -109.288 -87.4215 110.235
RightUpLeg  6.91104 -11.0247 -4.36356
RightLeg  24.0352 2.22144 0.758061
RightFoot  3.00171 -0.681276 5.64887
RightToes  -1.74624e-010 0 -3.6325e-017
Spine  1.01854 5.80484 10.9136
Spine1  6.78579 9.48179 -14.3121
HEad  -11.9536 -9.06072 2.50398
LeftShoulder1  7.77475 -11.722 -44.4691
LeftArm  0.59069 47.1287 -16.1727
LeftForeArm  171.51 -58.7069 -163.774
LeftHand  -0.244104 0.0205437 5.32207
RightShoulder  6.09128 9.87844 39.4116
RightArm  15.9287 -10.3444 38.3656
RightForeArm  162.196 59.879 162.184
RightHand  -0.1119 -10.3358 1.3346
LeftUpLeg  -20.5995 7.8018 -5.33604
LeftLeg  21.3642 4.38784 2.1247
LeftFoot  -13.1075 -0.00298311 -5.26391
LeftToes  -6.82154e-011 1.37952e-011 -1.79748e-011
104
root  -26.4981 41.3233 -2.21491 -114.48 -87.4894 114.46
RightUpLeg  5.17188 -6.11544 -3.63974
RightLeg  34.1409 -3.1138 -2.5858
RightFoot  4.04132 -0.480353 3.72573
RightToes  -1.74624e-010 0 -3.6325e-017
Spine  1.7004 5.8489 10.2491
Spine1  7.50411 9.62588 -14.1053
HEad  -12.1711 -8.97446 2.65376
LeftShoulder1  7.88204 -12.0269 -44.1867
LeftArm  -3.27343 49.7439 -18.1204
LeftForeArm  173.121 -57.2254 -164.77
LeftHand  -0.244104 0.0205437 5.32207
RightShoulder  6.24562 10.3233 39.0769
RightArm  18.3977 -9.95814 37.5379
RightForeArm  165.819 60.6575 161.985
RightHand  -0.237839 -10.3203 4.10956
LeftUpLeg  -17.9295 8.71082 -6.00704
LeftLeg  13.6301 2.73407 -0.366686
LeftFoot  -12.9542 -0.00899367 -6.35971
LeftToes  -6.82154e-011 1.37952e-011 -1.79748e-011
105
root  -28.5732 40.7425 -2.1381 -122.564 -87.1073 121.057
RightUpLeg  2.47515 -2.22251 -4.00358
RightLeg  47.2157 -5.9702 -7.1567
RightFoot  2.84726 -0.243006 2.11539
RightToes  -1.74624e-010 0 -3.6325e-017
Spine  3.50544 5.47887 9.24117
Spine1  7.67147 9.32282 -13.6225
HEad  -13.0664 -8.19279 2.88432
LeftShoulder1  7.77437 -11.9155 -43.881
LeftArm  -7.10046 50.3885 -21.232
LeftForeArm  175.207 -55.5208 -165.849
LeftHand  -0.244104 0.0205437 5.32207
RightShoulder  6.32831 10.4306 39.3133
RightArm  20.1491 -9.27775 36.3251
RightForeArm  164.153 61.8491 160.973
RightHand  -0.278961 -10.5666 4.74732
LeftUpLeg  -15.6817 6.27049 -6.0654
LeftLeg  11.6131 5.76579 -1.18644
LeftFoot  -10.0509 0.089745 -4.26264
LeftToes  -6.82154e-011 1.37952e-011 -1.79748e-011
106
root  -30.574 39.8843 -2.01917 -122.504 -86.1418 119.444
RightUpLeg  -1.31268 0.519546 -6.12753
RightLeg  60.3853 -5.39292 -10.5709
RightFoot  2.04612 -0.148454 1.38872
RightToes  -1.74624e-010 0 -3.6325e-017
Spine  6.09991 4.6528 7.45008
Spine1  7.05405 8.43564 -12.9548
HEad  -14.8311 -6.97037 2.81919
LeftShoulder1  7.49707 -11.3702 -43.8692
LeftArm  -9.64154 48.6326 -23.8638
LeftForeArm  175.911 -54.5634 -166.389
LeftHand  -0.244104 0.0205437 5.32207
RightShoulder  6.32322 10.2669 39.7927
RightArm  20.6253 -9.0197 35.941
RightForeArm  159.496 64.2242 158.532
RightHand  -0.30556 -11.1431 4.73182
LeftUpLeg  -15.6736 9.69652 -9.05412
LeftLeg  16.8148 3.83639 0.664987
LeftFoot  -6.78502 -0.0125323 1.45966
LeftToes  -6.82154e-011 1.37952e-011 -1.79748e-011
107
root  -32.4539 38.9526 -1.92205 -117.839 -84.7173 113.19
RightUpLeg  -6.15246 2.59147 -9.43515
RightLeg  71.9673 -3.30445 -12.1856
RightFoot  1.09076 -0.028861 0.316408
RightToes  -1.74624e-010 0 -3.6325e-017
Spine  9.25157 3.66808 4.61807
Spine1  6.21212 7.09239 -11.7489
HEad  -17.5155 -5.70049 2.52748
LeftShoulder1  7.36381 -10.7226 -45.1
LeftArm  -10.2938 43.3233 -24.4534
LeftForeArm  174.527 -56.173 -165.434
LeftHand  -0.244104 0.0205437 5.32207
RightShoulder  6.48861 10.2022 41.1308
RightArm  18.5186 -9.8988 36.3599
RightForeArm  154.698 68.9992 152.556
RightHand  -0.270834 -11.1005 4.06167
LeftUpLeg  -16.5161 10.3411 -11.4701
LeftLeg  26.1453 4.26285 2.74673
LeftFoot  -7.23104 -0.18305 6.65753
LeftToes  -6.82154e-011 1.37952e-011 -1.79748e-011
108
root  -34.2779 38.2808 -1.87562 -112.892 -83.4507 107.023
RightUpLeg  -11.6153 3.69813 -12.5271
RightLeg  79.9692 -1.66006 -13.4639
RightFoot  -0.83369 0.105835 -1.21848
RightToes  -1.74624e-010 0 -3.6325e-017
Spine  11.6905 2.77774 1.47974
Spine1  5.93419 5.5533 -9.94455
HEad  -19.78 -4.50245 2.23543
LeftShoulder1  7.67545 -10.5916 -47.497
LeftArm  -9.37394 35.3248 -23.2566
LeftForeArm  171.909 -60.2741 -162.781
LeftHand  -0.244104 0.0205437 5.32207
RightShoulder  6.92638 10.332 43.6606
RightArm  13.3453 -12.7076 36.4698
RightForeArm  148.147 75.0574 140.078
RightHand  -0.17566 -10.8396 2.3983
LeftUpLeg  -16.0074 9.63601 -12.7645
LeftLeg  33.8739 5.23831 4.11507
LeftFoot  -11.9264 0.0986164 7.82566
LeftToes  -6.82154e-011 1.37952e-011 -1.79748e-011
